<svg xmlns="http://www.w3.org/2000/svg" version="1.1" xmlns:xlink="http://www.w3.org/1999/xlink" xmlns:svgjs="http://svgjs.dev/svgjs" width="128" height="128" viewBox="0 0 128 128"><g transform="matrix(0.6130952380952381,0,0,0.6130952380952381,24.92395105917582,12.333870967741937)"><svg viewBox="0 0 118 155" data-background-color="#ffffff" preserveAspectRatio="xMidYMid meet" height="168" width="128" xmlns="http://www.w3.org/2000/svg" xmlns:xlink="http://www.w3.org/1999/xlink"><defs></defs><g id="tight-bounds" transform="matrix(1,0,0,1,-0.24365942028985899,0.25)"><svg viewBox="0 0 118.48731884057972 154.5" height="154.5" width="118.48731884057972"><g><svg viewBox="0 0 118.48731884057972 154.5" height="154.5" width="118.48731884057972"><g><svg viewBox="0 0 118.48731884057972 154.5" height="154.5" width="118.48731884057972"><g><svg viewBox="0 0 118.48731884057972 154.5" height="154.5" width="118.48731884057972"><g><svg viewBox="0 0 118.48731884057972 154.5" height="154.5" width="118.48731884057972"><g transform="matrix(1,0,0,1,0,0)"><svg width="118.48731884057972" viewBox="2.27 -40.43 76.73 40.43" height="154.5" data-palette-color="#020d80"><g class="undefined-text-0" data-fill-palette-color="primary" id="text-0"><path d="M11.06-40.43L11.06 0 9.3 0 9.3-40.43 11.06-40.43ZM7.54-40.43L7.54 0 5.79 0 5.79-40.43 7.54-40.43ZM4.03-40.43L4.03 0 2.27 0 2.27-40.43 4.03-40.43ZM14.58-15.82L14.58-8.79 33.28-8.79 33.28-7.03 14.58-7.03 14.58-5.27 33.28-5.27 33.28-3.52 14.58-3.52 14.58-1.76 33.28-1.76 33.28 0 12.82 0 12.82-40.43 33.28-40.43 33.28-38.67 14.58-38.67 14.58-36.91 33.28-36.91 33.28-35.16 14.58-35.16 14.58-33.4 33.28-33.4 33.28-31.64 14.58-31.64 14.58-24.61 24.17-24.61 24.17-22.85 14.58-22.85 14.58-21.09 24.17-21.09 24.17-19.34 14.58-19.34 14.58-17.58 24.17-17.58 24.17-15.82 14.58-15.82ZM66.7 0L66.7-14.75 68.45-18.07 68.45 0 66.7 0ZM70.21 0L70.21-21.48 71.97-24.8 71.97 0 70.21 0ZM73.73 0L73.73-28.13 75.49-31.47 75.49 0 73.73 0ZM75.02-40.43L61.94-15.58 60.94-17.41 73.04-40.43 75.02-40.43ZM71.04-40.43L59.91-19.41 58.88-21.26 69.04-40.43 71.04-40.43ZM48.14 0L48.14-17.87 49.9-14.55 49.9 0 48.14 0ZM44.63 0L44.63-24.56 46.38-21.24 46.38 0 44.63 0ZM41.11 0L41.11-31.25 42.87-27.91 42.87 0 41.11 0ZM39.57-40.43L55.32-10.55 53.34-10.55 39.35-37.08 39.35 0 37.6 0 37.6-40.43 39.57-40.43ZM43.58-40.43L59.3-10.55 57.3-10.55 41.57-40.43 43.58-40.43ZM77.24 0L77.24-37.08 63.25-10.55 61.25-10.55 45.55-40.43 47.53-40.43 62.28-12.4 77-40.43 79-40.43 79 0 77.24 0Z" fill="#020d80" data-fill-palette-color="primary"></path></g></svg></g></svg></g></svg></g></svg></g></svg></g></svg><rect width="118.48731884057972" height="154.5" fill="none" stroke="none" visibility="hidden"></rect></g></svg></g></svg>